<svg height="32" viewBox="0 0 32 32" width="32" xmlns="http://www.w3.org/2000/svg"><path d="m11.317 32c-2.052-.907-3.448-2.86-3.629-5.099.119-2.303 1.339-4.407 3.271-5.661-.319.776-.245 1.656.197 2.359.5.704 1.365 1.037 2.208.865 1.204-.339 1.907-1.589 1.568-2.792-.12-.421-.359-.803-.687-1.088-1.365-1.111-2.048-2.844-1.803-4.584.235-.921.745-1.749 1.464-2.38-.543 1.443.979 2.859 2.005 3.563 1.812 1.083 3.557 2.281 5.228 3.577 1.829 1.443 2.824 3.693 2.667 6-.411 2.453-2.145 4.48-4.509 5.24 4.729-1.052 9.609-4.812 9.703-10.145-.093-4.267-2.64-8.095-6.531-9.839h-.172c.083.208.124.432.119.661.011-.147.011-.297 0-.443.021.177.021.349 0 .52-.296 1.215-1.52 1.959-2.739 1.667-.484-.119-.917-.395-1.229-.785-1.563-2 0-4.276.26-6.48.161-2.812-1.124-5.5-3.405-7.145 1.14 1.901-.381 4.401-1.485 5.823s-2.703 2.479-4.011 3.719c-1.405 1.308-2.692 2.745-3.848 4.281-2.5 3.052-3.48 7.079-2.667 10.937 1.115 3.719 4.208 6.516 8.02 7.24h.021z"/></svg>